{"title":"Mere Dost Picture Abhi Baki Hai 2012 ScamRip (ICTV) Hindi Movie","uid":7460911,"size":757968896,"categoryP":"video","categoryS":"movies","magnet":"?xt=urn:btih:7cf0fa3d7fda6d575f1f07ccd290b1ce31ca325d&amp;dn=Mere+Dost+Picture+Abhi+Baki+Hai+2012+ScamRip+%28ICTV%29+Hindi+Movie&amp;tr=udp%3A%2F%2Ftracker.openbittorrent.com%3A80&amp;tr=udp%3A%2F%2Fopen.demonii.com%3A1337&amp;tr=udp%3A%2F%2Ftracker.coppersurfer.tk%3A6969&amp;tr=udp%3A%2F%2Fexodus.desync.com%3A6969","seeders":0,"leechers":0,"uploader":"SJonam","files":1,"time":1342813945,"description":"Note : It's CAM Rip... so print is bad... download only u needed camrip else wait for screener rip...\n\n &lt;a href=&quot;\nhttp://desibbrg.org/images/66952052392581364616.gif&quot; rel=&quot;nofollow&quot; target=&quot;_NEW&quot;&gt;\nhttp://desibbrg.org/images/66952052392581364616.gif&lt;/a&gt;\n]http://desibbrg.org/images/38025920556082526917.jpg\n\n\nMedia Info - \nGeneral\nComplete name                    : Mere Dost Picture Abhi Baki Hai [2012] SCAM Rip Exclusive By Team [IcTv].mpg\nFormat                           : MPEG-PS\nFile size                        : 723 MiB\nDuration                         : 1h 55mn\nOverall bit rate                 : 876 Kbps\n\nVideo\nID                               : 224 (0xE0)\nFormat                           : MPEG Video\nFormat version                   : Version 2\nFormat profile                   : Main@Main\nFormat settings, BVOP            : Yes\nFormat settings, Matrix          : Default\nDuration                         : 1h 55mn\nBit rate mode                    : Variable\nBit rate                         : 731 Kbps\nNominal bit rate                 : 9 672 Kbps\nWidth                            : 352 pixels\nHeight                           : 288 pixels\nDisplay aspect ratio             : 4:3\nFrame rate                       : 24.000 fps\nStandard                         : PAL\nColor space                      : YUV\nChroma subsampling               : 4:2:0\nBit depth                        : 8 bits\nScan type                        : Progressive\nScan order                       : 2:2:2:2:2:2:2:2:2:2:2:3 Pulldown\nCompression mode                 : Lossy\nBits/(Pixel*Frame)               : 0.300\nStream size                      : 603 MiB (83%)\n\nAudio\nID                               : 192 (0xC0)\nFormat                           : MPEG Audio\nFormat version                   : Version 1\nFormat profile                   : Layer 2\nDuration                         : 1h 55mn\nBit rate mode                    : Constant\nBit rate                         : 128 Kbps\nChannel(s)                       : 2 channels\nSampling rate                    : 48.0 KHz\nCompression mode                 : Lossy\nStream size                      : 106 MiB (15%)\n\nRipper : Master Mind\n\nSeeding 24x7... Extreme Seeding...\n\n\nEnjoy!\n","torrent":{"xt":"urn:btih:7cf0fa3d7fda6d575f1f07ccd290b1ce31ca325d","amp;dn":"Mere+Dost+Picture+Abhi+Baki+Hai+2012+ScamRip+%28ICTV%29+Hindi+Movie","amp;tr":["udp%3A%2F%2Ftracker.openbittorrent.com%3A80","udp%3A%2F%2Fopen.demonii.com%3A1337","udp%3A%2F%2Ftracker.coppersurfer.tk%3A6969","udp%3A%2F%2Fexodus.desync.com%3A6969"],"infoHash":"7cf0fa3d7fda6d575f1f07ccd290b1ce31ca325d","infoHashBuffer":{"type":"Buffer","data":[124,240,250,61,127,218,109,87,95,31,7,204,210,144,177,206,49,202,50,93]},"announce":[],"urlList":[]}}